<svg width="30" height="23" viewBox="0 0 30 23" fill="none" xmlns="http://www.w3.org/2000/svg">
<path d="M30 4.39453H28.2423V1.75772H25.6038V0H30V4.39453Z" fill="#96D89B"/>
<path d="M1.75772 4.39453H0V0H4.39628V1.75772H1.75772V4.39453Z" fill="#96D89B"/>
<path d="M30 22.0381H25.6038V20.2804H28.2423V17.6437H30V22.0381Z" fill="#96D89B"/>
<path d="M4.39628 22.0381H0V17.6437H1.75772V20.2804H4.39628V22.0381Z" fill="#96D89B"/>
<path d="M3.76526 3.38928H5.52297V18.6488H3.76526V3.38928Z" fill="#96D89B"/>
<path d="M7.21704 3.38928H8.97476V15.1331H7.21704V3.38928Z" fill="#96D89B"/>
<path d="M10.6691 3.38928H12.4268V15.1331H10.6691V3.38928Z" fill="#96D89B"/>
<path d="M14.121 3.38928H15.8787V18.6488H14.121V3.38928Z" fill="#96D89B"/>
<path d="M17.5728 3.38928H19.3305V18.6488H17.5728V3.38928Z" fill="#96D89B"/>
<path d="M24.4766 3.38928H26.2343V18.6488H24.4766V3.38928Z" fill="#96D89B"/>
<path d="M21.0247 3.38928H22.7824V15.1331H21.0247V3.38928Z" fill="#96D89B"/>
<path d="M7.21704 16.891H8.97476V18.6488H7.21704V16.891Z" fill="#96D89B"/>
<path d="M10.6691 16.891H12.4268V18.6488H10.6691V16.891Z" fill="#96D89B"/>
<path d="M21.0247 16.891H22.7824V18.6488H21.0247V16.891Z" fill="#96D89B"/>
</svg>
