<svg width="26" height="26" viewBox="0 0 26 26" fill="none" xmlns="http://www.w3.org/2000/svg">
<path d="M22.6 1H3.4C2.07452 1 1 2.07452 1 3.4V8.2C1 9.52548 2.07452 10.6 3.4 10.6H22.6C23.9255 10.6 25 9.52548 25 8.2V3.4C25 2.07452 23.9255 1 22.6 1Z" fill="#5DBA63" stroke="#5DBA63" stroke-width="2" stroke-linecap="round" stroke-linejoin="round"/>
<path d="M22.6 15.4H3.4C2.07452 15.4 1 16.4745 1 17.8V22.6C1 23.9255 2.07452 25 3.4 25H22.6C23.9255 25 25 23.9255 25 22.6V17.8C25 16.4745 23.9255 15.4 22.6 15.4Z" fill="#5DBA63" stroke="#5DBA63" stroke-width="2" stroke-linecap="round" stroke-linejoin="round"/>
<path d="M5.80005 5.79999H5.81205" stroke="white" stroke-width="2" stroke-linecap="round" stroke-linejoin="round"/>
<path d="M5.80005 20.2H5.81205" stroke="white" stroke-width="2" stroke-linecap="round" stroke-linejoin="round"/>
</svg>
